<mxfile host="app.diagrams.net" modified="2023-04-06T15:31:48.544Z" agent="Mozilla/5.0 (Windows NT 10.0; Win64; x64) AppleWebKit/537.36 (KHTML, like Gecko) Chrome/111.0.0.0 Safari/537.36" etag="-tHy0-7Q5N4C5hzk4EYa" version="21.1.4" type="github">
  <diagram name="Page-1" id="NuKEFwkhVWcs9C197xyw">
    <mxGraphModel dx="2261" dy="796" grid="1" gridSize="10" guides="1" tooltips="1" connect="1" arrows="1" fold="1" page="1" pageScale="1" pageWidth="827" pageHeight="1169" math="0" shadow="0">
      <root>
        <mxCell id="0" />
        <mxCell id="1" parent="0" />
        <mxCell id="ryFdowwhQB1zoE1Swgne-65" style="edgeStyle=orthogonalEdgeStyle;rounded=0;orthogonalLoop=1;jettySize=auto;html=1;exitX=1;exitY=0.5;exitDx=0;exitDy=0;entryX=0;entryY=0.25;entryDx=0;entryDy=0;" parent="1" source="ryFdowwhQB1zoE1Swgne-2" target="ryFdowwhQB1zoE1Swgne-10" edge="1">
          <mxGeometry relative="1" as="geometry" />
        </mxCell>
        <mxCell id="ryFdowwhQB1zoE1Swgne-2" value="" style="rounded=0;whiteSpace=wrap;html=1;dashed=1;fontStyle=1;fillColor=#f5f5f5;strokeColor=#666666;fillStyle=solid;fontColor=#333333;" parent="1" vertex="1">
          <mxGeometry x="-176" y="528" width="209" height="649" as="geometry" />
        </mxCell>
        <mxCell id="ryFdowwhQB1zoE1Swgne-3" value="" style="rounded=0;whiteSpace=wrap;html=1;fillColor=none;" parent="1" vertex="1">
          <mxGeometry x="58" y="528" width="910" height="651" as="geometry" />
        </mxCell>
        <mxCell id="ryFdowwhQB1zoE1Swgne-4" value="" style="rounded=0;whiteSpace=wrap;html=1;fillColor=#d0cee2;dashed=1;fontStyle=1;strokeColor=#56517e;" parent="1" vertex="1">
          <mxGeometry x="88" y="1036" width="836" height="86" as="geometry" />
        </mxCell>
        <mxCell id="ryFdowwhQB1zoE1Swgne-5" value="" style="rounded=0;whiteSpace=wrap;html=1;fillColor=#dae8fc;dashed=1;fontStyle=1;strokeColor=#6c8ebf;" parent="1" vertex="1">
          <mxGeometry x="431" y="670" width="144" height="342" as="geometry" />
        </mxCell>
        <mxCell id="ryFdowwhQB1zoE1Swgne-6" value="" style="rounded=0;whiteSpace=wrap;html=1;fillColor=#fff2cc;dashed=1;fontStyle=1;strokeColor=#d6b656;" parent="1" vertex="1">
          <mxGeometry x="253.25" y="800" width="144" height="212" as="geometry" />
        </mxCell>
        <mxCell id="ryFdowwhQB1zoE1Swgne-7" value="" style="rounded=0;whiteSpace=wrap;html=1;fillColor=#ffe6cc;dashed=1;fontStyle=1;strokeColor=#d79b00;" parent="1" vertex="1">
          <mxGeometry x="88" y="670" width="308" height="82" as="geometry" />
        </mxCell>
        <mxCell id="ryFdowwhQB1zoE1Swgne-8" value="" style="rounded=0;whiteSpace=wrap;html=1;fillColor=#f8cecc;dashed=1;fontStyle=1;gradientColor=#ea6b66;strokeColor=#b85450;" parent="1" vertex="1">
          <mxGeometry x="635" y="869" width="280" height="141" as="geometry" />
        </mxCell>
        <mxCell id="ryFdowwhQB1zoE1Swgne-9" value="" style="rounded=0;whiteSpace=wrap;html=1;fillColor=#d5e8d4;dashed=1;fontStyle=1;gradientColor=#97d077;strokeColor=#82b366;" parent="1" vertex="1">
          <mxGeometry x="635.5" y="680" width="280" height="156" as="geometry" />
        </mxCell>
        <mxCell id="ryFdowwhQB1zoE1Swgne-10" value="" style="rounded=0;whiteSpace=wrap;html=1;fillColor=#d5e8d4;dashed=1;fontStyle=1;strokeColor=#82b366;" parent="1" vertex="1">
          <mxGeometry x="87" y="800" width="144" height="212" as="geometry" />
        </mxCell>
        <mxCell id="ryFdowwhQB1zoE1Swgne-28" value="Transform" style="text;html=1;strokeColor=none;fillColor=none;align=center;verticalAlign=middle;whiteSpace=wrap;rounded=0;fontStyle=1;fontSize=22;" parent="1" vertex="1">
          <mxGeometry x="298" y="766" width="60" height="44" as="geometry" />
        </mxCell>
        <mxCell id="ryFdowwhQB1zoE1Swgne-29" value="Insights" style="text;html=1;strokeColor=none;fillColor=none;align=center;verticalAlign=middle;whiteSpace=wrap;rounded=0;fontStyle=1;fontSize=22;" parent="1" vertex="1">
          <mxGeometry x="745" y="647.5" width="60" height="22.5" as="geometry" />
        </mxCell>
        <mxCell id="ryFdowwhQB1zoE1Swgne-38" value="Bus de messages" style="text;html=1;strokeColor=none;fillColor=none;align=center;verticalAlign=middle;whiteSpace=wrap;rounded=0;fontStyle=1" parent="1" vertex="1">
          <mxGeometry x="100" y="819" width="110" height="22.5" as="geometry" />
        </mxCell>
        <mxCell id="ryFdowwhQB1zoE1Swgne-42" value="Camera" style="sketch=0;outlineConnect=0;fontColor=none;gradientColor=none;strokeColor=#232F3E;fillColor=#ffffff;dashed=0;verticalLabelPosition=bottom;verticalAlign=top;align=center;html=1;fontSize=12;fontStyle=1;aspect=fixed;shape=mxgraph.aws4.resourceIcon;resIcon=mxgraph.aws4.camera;noLabel=1;" parent="1" vertex="1">
          <mxGeometry x="-130" y="751" width="60" height="60" as="geometry" />
        </mxCell>
        <mxCell id="ryFdowwhQB1zoE1Swgne-46" value="Windfarm" style="sketch=0;outlineConnect=0;fontColor=none;gradientColor=none;strokeColor=#232F3E;fillColor=#ffffff;dashed=0;verticalLabelPosition=bottom;verticalAlign=top;align=center;html=1;fontSize=12;fontStyle=1;aspect=fixed;shape=mxgraph.aws4.resourceIcon;resIcon=mxgraph.aws4.windfarm;noLabel=1;" parent="1" vertex="1">
          <mxGeometry x="-130" y="926.5" width="60" height="60" as="geometry" />
        </mxCell>
        <mxCell id="ryFdowwhQB1zoE1Swgne-47" value="Capteurs de Presence" style="text;html=1;strokeColor=none;fillColor=none;align=center;verticalAlign=middle;whiteSpace=wrap;rounded=0;fontStyle=1" parent="1" vertex="1">
          <mxGeometry x="-135" y="809.25" width="70" height="44" as="geometry" />
        </mxCell>
        <mxCell id="ryFdowwhQB1zoE1Swgne-49" value="SystÃ¨me de Ventilation (GTB)" style="text;html=1;strokeColor=none;fillColor=none;align=center;verticalAlign=middle;whiteSpace=wrap;rounded=0;fontStyle=1" parent="1" vertex="1">
          <mxGeometry x="-133" y="988" width="70" height="44" as="geometry" />
        </mxCell>
        <mxCell id="ryFdowwhQB1zoE1Swgne-50" value="Floki.io" style="text;html=1;strokeColor=none;fillColor=none;align=center;verticalAlign=middle;whiteSpace=wrap;rounded=0;fontStyle=1;fontSize=22;" parent="1" vertex="1">
          <mxGeometry x="688.25" y="846.25" width="187.75" height="22.5" as="geometry" />
        </mxCell>
        <mxCell id="ryFdowwhQB1zoE1Swgne-55" value="Data source" style="text;html=1;strokeColor=none;fillColor=none;align=center;verticalAlign=middle;whiteSpace=wrap;rounded=0;fontStyle=1;fontSize=22;" parent="1" vertex="1">
          <mxGeometry x="-176" y="1144" width="143" height="44" as="geometry" />
        </mxCell>
        <mxCell id="ryFdowwhQB1zoE1Swgne-57" value="Landing" style="text;html=1;strokeColor=none;fillColor=none;align=center;verticalAlign=middle;whiteSpace=wrap;rounded=0;fontStyle=1;fontSize=22;" parent="1" vertex="1">
          <mxGeometry x="123" y="765.25" width="60" height="44" as="geometry" />
        </mxCell>
        <mxCell id="ryFdowwhQB1zoE1Swgne-59" value="" style="sketch=0;points=[[0,0,0],[0.25,0,0],[0.5,0,0],[0.75,0,0],[1,0,0],[0,1,0],[0.25,1,0],[0.5,1,0],[0.75,1,0],[1,1,0],[0,0.25,0],[0,0.5,0],[0,0.75,0],[1,0.25,0],[1,0.5,0],[1,0.75,0]];outlineConnect=0;fontColor=#232F3E;gradientColor=#FF4F8B;gradientDirection=north;fillColor=#BC1356;strokeColor=#ffffff;dashed=0;verticalLabelPosition=bottom;verticalAlign=top;align=center;html=1;fontSize=12;fontStyle=0;aspect=fixed;shape=mxgraph.aws4.resourceIcon;resIcon=mxgraph.aws4.mq;" parent="1" vertex="1">
          <mxGeometry x="100" y="852" width="57.5" height="57.5" as="geometry" />
        </mxCell>
        <mxCell id="ryFdowwhQB1zoE1Swgne-62" value="" style="sketch=0;points=[[0,0,0],[0.25,0,0],[0.5,0,0],[0.75,0,0],[1,0,0],[0,1,0],[0.25,1,0],[0.5,1,0],[0.75,1,0],[1,1,0],[0,0.25,0],[0,0.5,0],[0,0.75,0],[1,0.25,0],[1,0.5,0],[1,0.75,0]];outlineConnect=0;fontColor=#232F3E;gradientColor=#945DF2;gradientDirection=north;fillColor=#5A30B5;strokeColor=#ffffff;dashed=0;verticalLabelPosition=bottom;verticalAlign=top;align=center;html=1;fontSize=12;fontStyle=0;aspect=fixed;shape=mxgraph.aws4.resourceIcon;resIcon=mxgraph.aws4.managed_streaming_for_kafka;" parent="1" vertex="1">
          <mxGeometry x="172" y="850.5" width="57" height="57" as="geometry" />
        </mxCell>
        <mxCell id="ryFdowwhQB1zoE1Swgne-63" value="" style="sketch=0;points=[[0,0,0],[0.25,0,0],[0.5,0,0],[0.75,0,0],[1,0,0],[0,1,0],[0.25,1,0],[0.5,1,0],[0.75,1,0],[1,1,0],[0,0.25,0],[0,0.5,0],[0,0.75,0],[1,0.25,0],[1,0.5,0],[1,0.75,0]];outlineConnect=0;fontColor=#232F3E;gradientColor=#FF4F8B;gradientDirection=north;fillColor=#BC1356;strokeColor=#ffffff;dashed=0;verticalLabelPosition=bottom;verticalAlign=top;align=center;html=1;fontSize=12;fontStyle=0;aspect=fixed;shape=mxgraph.aws4.resourceIcon;resIcon=mxgraph.aws4.mq;" parent="1" vertex="1">
          <mxGeometry x="441.5" y="847" width="57.5" height="57.5" as="geometry" />
        </mxCell>
        <mxCell id="ryFdowwhQB1zoE1Swgne-64" value="" style="sketch=0;points=[[0,0,0],[0.25,0,0],[0.5,0,0],[0.75,0,0],[1,0,0],[0,1,0],[0.25,1,0],[0.5,1,0],[0.75,1,0],[1,1,0],[0,0.25,0],[0,0.5,0],[0,0.75,0],[1,0.25,0],[1,0.5,0],[1,0.75,0]];outlineConnect=0;fontColor=#232F3E;gradientColor=#945DF2;gradientDirection=north;fillColor=#5A30B5;strokeColor=#ffffff;dashed=0;verticalLabelPosition=bottom;verticalAlign=top;align=center;html=1;fontSize=12;fontStyle=0;aspect=fixed;shape=mxgraph.aws4.resourceIcon;resIcon=mxgraph.aws4.managed_streaming_for_kafka;" parent="1" vertex="1">
          <mxGeometry x="513.5" y="845.5" width="57" height="57" as="geometry" />
        </mxCell>
        <mxCell id="ryFdowwhQB1zoE1Swgne-66" value="Bus de messages" style="text;html=1;strokeColor=none;fillColor=none;align=center;verticalAlign=middle;whiteSpace=wrap;rounded=0;fontStyle=1" parent="1" vertex="1">
          <mxGeometry x="451" y="800" width="110" height="22.5" as="geometry" />
        </mxCell>
      </root>
    </mxGraphModel>
  </diagram>
</mxfile>
